<mxfile host="app.diagrams.net" modified="2023-04-07T00:02:06.420Z" agent="Mozilla/5.0 (Windows NT 10.0; Win64; x64; rv:109.0) Gecko/20100101 Firefox/111.0" etag="6ilU8UwzxL212LhMT-1F" version="21.1.5" type="github">
  <diagram id="1HFoKZ7HmbYaqoWhvM2N" name="Page-1">
    <mxGraphModel dx="1434" dy="755" grid="0" gridSize="10" guides="1" tooltips="1" connect="1" arrows="1" fold="1" page="1" pageScale="1" pageWidth="827" pageHeight="1169" math="0" shadow="0">
      <root>
        <mxCell id="0" />
        <mxCell id="1" parent="0" />
        <mxCell id="qNSTUSo1iGKztb03Qh-T-13" style="edgeStyle=orthogonalEdgeStyle;rounded=0;orthogonalLoop=0;jettySize=auto;html=1;strokeColor=default;editable=1;movable=1;resizable=1;rotatable=1;deletable=1;locked=0;connectable=1;flowAnimation=0;enumerate=0;comic=0;ignoreEdge=0;noJump=1;bendable=0;backgroundOutline=0;metaEdit=0;snapToPoint=0;" parent="1" source="fpnA1gOJu9WvSEtu6Hov-3" target="fpnA1gOJu9WvSEtu6Hov-11" edge="1">
          <mxGeometry relative="1" as="geometry">
            <Array as="points">
              <mxPoint x="59" y="414" />
              <mxPoint x="59" y="553" />
            </Array>
          </mxGeometry>
        </mxCell>
        <mxCell id="qNSTUSo1iGKztb03Qh-T-18" style="edgeStyle=orthogonalEdgeStyle;rounded=0;orthogonalLoop=1;jettySize=auto;html=1;" parent="1" source="fpnA1gOJu9WvSEtu6Hov-3" target="qNSTUSo1iGKztb03Qh-T-10" edge="1">
          <mxGeometry relative="1" as="geometry" />
        </mxCell>
        <mxCell id="qNSTUSo1iGKztb03Qh-T-19" style="edgeStyle=orthogonalEdgeStyle;rounded=0;orthogonalLoop=1;jettySize=auto;html=1;entryX=1;entryY=0.5;entryDx=0;entryDy=0;" parent="1" source="fpnA1gOJu9WvSEtu6Hov-3" target="qNSTUSo1iGKztb03Qh-T-7" edge="1">
          <mxGeometry relative="1" as="geometry" />
        </mxCell>
        <mxCell id="qNSTUSo1iGKztb03Qh-T-20" style="edgeStyle=orthogonalEdgeStyle;rounded=0;orthogonalLoop=1;jettySize=auto;html=1;entryX=1;entryY=0.5;entryDx=0;entryDy=0;" parent="1" source="fpnA1gOJu9WvSEtu6Hov-3" target="fpnA1gOJu9WvSEtu6Hov-37" edge="1">
          <mxGeometry relative="1" as="geometry">
            <Array as="points">
              <mxPoint x="332" y="414" />
              <mxPoint x="332" y="220" />
            </Array>
          </mxGeometry>
        </mxCell>
        <mxCell id="fpnA1gOJu9WvSEtu6Hov-3" value="&lt;div&gt;Admin&lt;/div&gt;" style="shape=umlActor;verticalLabelPosition=bottom;verticalAlign=top;html=1;outlineConnect=0;" parent="1" vertex="1">
          <mxGeometry x="375" y="384" width="30" height="60" as="geometry" />
        </mxCell>
        <mxCell id="Gids-o5lJiueKaFamN5L-6" style="edgeStyle=orthogonalEdgeStyle;rounded=0;orthogonalLoop=1;jettySize=auto;html=1;exitX=1;exitY=0.5;exitDx=0;exitDy=0;" parent="1" source="vZ3PRXWnmt1vqze5UoZ0-18" target="vZ3PRXWnmt1vqze5UoZ0-19" edge="1">
          <mxGeometry relative="1" as="geometry" />
        </mxCell>
        <mxCell id="vZ3PRXWnmt1vqze5UoZ0-18" value="Envoyer Login et motDepasse" style="ellipse;whiteSpace=wrap;html=1;fillColor=#a20025;fontColor=#ffffff;strokeColor=#6F0000;" parent="1" vertex="1">
          <mxGeometry x="410.99999999999994" y="522.84" width="119" height="60" as="geometry" />
        </mxCell>
        <mxCell id="qNSTUSo1iGKztb03Qh-T-21" style="rounded=0;orthogonalLoop=1;jettySize=auto;html=1;entryX=1;entryY=0.3333333333333333;entryDx=0;entryDy=0;entryPerimeter=0;" parent="1" source="vZ3PRXWnmt1vqze5UoZ0-19" target="fpnA1gOJu9WvSEtu6Hov-3" edge="1">
          <mxGeometry relative="1" as="geometry" />
        </mxCell>
        <mxCell id="vZ3PRXWnmt1vqze5UoZ0-19" value="&lt;div&gt;Post&lt;/div&gt;&lt;div&gt;url/login&lt;br&gt;&lt;/div&gt;" style="html=1;fillColor=#a20025;fontColor=#ffffff;strokeColor=#6F0000;" parent="1" vertex="1">
          <mxGeometry x="536" y="415.00000000000006" width="110" height="50" as="geometry" />
        </mxCell>
        <mxCell id="cNAMEyd84vMaoOLNQ2fS-2" value="url : API url " style="shape=note2;boundedLbl=1;whiteSpace=wrap;html=1;size=25;verticalAlign=top;align=center;" parent="1" vertex="1">
          <mxGeometry x="29" y="23" width="120" height="60" as="geometry" />
        </mxCell>
        <mxCell id="Gids-o5lJiueKaFamN5L-3" style="edgeStyle=orthogonalEdgeStyle;rounded=0;orthogonalLoop=1;jettySize=auto;html=1;" parent="1" source="fpnA1gOJu9WvSEtu6Hov-1" target="vZ3PRXWnmt1vqze5UoZ0-18" edge="1">
          <mxGeometry relative="1" as="geometry" />
        </mxCell>
        <mxCell id="qNSTUSo1iGKztb03Qh-T-16" style="edgeStyle=orthogonalEdgeStyle;rounded=0;orthogonalLoop=1;jettySize=auto;html=1;entryX=1;entryY=0.5;entryDx=0;entryDy=0;" parent="1" source="fpnA1gOJu9WvSEtu6Hov-1" target="fpnA1gOJu9WvSEtu6Hov-11" edge="1">
          <mxGeometry relative="1" as="geometry" />
        </mxCell>
        <mxCell id="qNSTUSo1iGKztb03Qh-T-17" style="edgeStyle=orthogonalEdgeStyle;rounded=0;orthogonalLoop=1;jettySize=auto;html=1;entryX=1;entryY=0.5;entryDx=0;entryDy=0;" parent="1" source="fpnA1gOJu9WvSEtu6Hov-1" target="qNSTUSo1iGKztb03Qh-T-1" edge="1">
          <mxGeometry relative="1" as="geometry" />
        </mxCell>
        <mxCell id="fpnA1gOJu9WvSEtu6Hov-1" value="Visiteur" style="shape=umlActor;verticalLabelPosition=bottom;verticalAlign=top;html=1;outlineConnect=0;" parent="1" vertex="1">
          <mxGeometry x="329.99835820895527" y="519" width="33.67164179104478" height="67.67567567567568" as="geometry" />
        </mxCell>
        <mxCell id="fpnA1gOJu9WvSEtu6Hov-11" value="&lt;div&gt;Lister les articles&lt;/div&gt;" style="ellipse;whiteSpace=wrap;html=1;fillColor=#d5e8d4;strokeColor=#82b366;" parent="1" vertex="1">
          <mxGeometry x="102.00044776119404" y="530.286036036036" width="145.91044776119404" height="45.11711711711712" as="geometry" />
        </mxCell>
        <mxCell id="MMcRs4qTpvVBW1Dn-aCO-20" value="GET&lt;br&gt;url/articles" style="text;html=1;strokeColor=#82b366;fillColor=#d5e8d4;align=center;verticalAlign=middle;whiteSpace=wrap;rounded=0;shadow=0;sketch=0;" parent="1" vertex="1">
          <mxGeometry x="124.45000000000002" y="603.276036036036" width="101.01492537313433" height="39.47747747747748" as="geometry" />
        </mxCell>
        <mxCell id="MMcRs4qTpvVBW1Dn-aCO-24" value="" style="endArrow=none;html=1;rounded=0;" parent="1" source="MMcRs4qTpvVBW1Dn-aCO-20" target="fpnA1gOJu9WvSEtu6Hov-11" edge="1">
          <mxGeometry width="50" height="50" relative="1" as="geometry">
            <mxPoint x="67.56716417910448" y="674.9106306306306" as="sourcePoint" />
            <mxPoint x="123.68656716417911" y="618.5142342342342" as="targetPoint" />
          </mxGeometry>
        </mxCell>
        <mxCell id="qNSTUSo1iGKztb03Qh-T-1" value="&lt;div&gt;Afficher un article&lt;/div&gt;" style="ellipse;whiteSpace=wrap;html=1;fillColor=#d5e8d4;strokeColor=#82b366;" parent="1" vertex="1">
          <mxGeometry x="102" y="670.28" width="140" height="45.12" as="geometry" />
        </mxCell>
        <mxCell id="qNSTUSo1iGKztb03Qh-T-2" value="GET&lt;br&gt;url/articles/:id" style="text;html=1;strokeColor=#82b366;fillColor=#d5e8d4;align=center;verticalAlign=middle;whiteSpace=wrap;rounded=0;shadow=0;sketch=0;" parent="1" vertex="1">
          <mxGeometry x="121.49000000000001" y="737.28" width="101.01" height="38.18" as="geometry" />
        </mxCell>
        <mxCell id="qNSTUSo1iGKztb03Qh-T-3" value="" style="endArrow=none;html=1;rounded=0;" parent="1" source="qNSTUSo1iGKztb03Qh-T-2" target="qNSTUSo1iGKztb03Qh-T-1" edge="1">
          <mxGeometry width="50" height="50" relative="1" as="geometry">
            <mxPoint x="67.56716417910448" y="724.9106306306306" as="sourcePoint" />
            <mxPoint x="123.68656716417911" y="668.5142342342342" as="targetPoint" />
          </mxGeometry>
        </mxCell>
        <mxCell id="fpnA1gOJu9WvSEtu6Hov-37" value="&lt;div&gt;Creer un nouvel article&lt;/div&gt;" style="ellipse;whiteSpace=wrap;html=1;fillColor=#fff2cc;strokeColor=#d6b656;" parent="1" vertex="1">
          <mxGeometry x="149" y="190" width="140" height="59" as="geometry" />
        </mxCell>
        <mxCell id="MMcRs4qTpvVBW1Dn-aCO-33" value="PUT&lt;br&gt;url/article/:id" style="text;html=1;strokeColor=#d6b656;fillColor=#fff2cc;align=center;verticalAlign=middle;whiteSpace=wrap;rounded=0;shadow=0;sketch=0;" parent="1" vertex="1">
          <mxGeometry x="29" y="202" width="90" height="35" as="geometry" />
        </mxCell>
        <mxCell id="MMcRs4qTpvVBW1Dn-aCO-37" value="" style="endArrow=none;html=1;rounded=0;exitX=1;exitY=0.5;exitDx=0;exitDy=0;entryX=0;entryY=0.5;entryDx=0;entryDy=0;" parent="1" source="MMcRs4qTpvVBW1Dn-aCO-33" target="fpnA1gOJu9WvSEtu6Hov-37" edge="1">
          <mxGeometry width="50" height="50" relative="1" as="geometry">
            <mxPoint x="129" y="82" as="sourcePoint" />
            <mxPoint x="169" y="82" as="targetPoint" />
          </mxGeometry>
        </mxCell>
        <mxCell id="qNSTUSo1iGKztb03Qh-T-7" value="&lt;div&gt;Modifier un article&lt;/div&gt;" style="ellipse;whiteSpace=wrap;html=1;fillColor=#fff2cc;strokeColor=#d6b656;" parent="1" vertex="1">
          <mxGeometry x="149" y="257" width="140" height="59" as="geometry" />
        </mxCell>
        <mxCell id="qNSTUSo1iGKztb03Qh-T-8" value="PATCH&lt;br&gt;url/article/:id" style="text;html=1;strokeColor=#d6b656;fillColor=#fff2cc;align=center;verticalAlign=middle;whiteSpace=wrap;rounded=0;shadow=0;sketch=0;" parent="1" vertex="1">
          <mxGeometry x="29" y="269" width="90" height="35" as="geometry" />
        </mxCell>
        <mxCell id="qNSTUSo1iGKztb03Qh-T-9" value="" style="endArrow=none;html=1;rounded=0;exitX=1;exitY=0.5;exitDx=0;exitDy=0;entryX=0;entryY=0.5;entryDx=0;entryDy=0;" parent="1" source="qNSTUSo1iGKztb03Qh-T-8" target="qNSTUSo1iGKztb03Qh-T-7" edge="1">
          <mxGeometry width="50" height="50" relative="1" as="geometry">
            <mxPoint x="129" y="149" as="sourcePoint" />
            <mxPoint x="169" y="149" as="targetPoint" />
          </mxGeometry>
        </mxCell>
        <mxCell id="qNSTUSo1iGKztb03Qh-T-10" value="&lt;div&gt;&lt;span style=&quot;background-color: initial;&quot;&gt;Suprimmer un article&lt;/span&gt;&lt;br&gt;&lt;/div&gt;" style="ellipse;whiteSpace=wrap;html=1;fillColor=#fff2cc;strokeColor=#d6b656;" parent="1" vertex="1">
          <mxGeometry x="149" y="325" width="140" height="59" as="geometry" />
        </mxCell>
        <mxCell id="qNSTUSo1iGKztb03Qh-T-11" value="DELETE&lt;br&gt;url/article/:id" style="text;html=1;strokeColor=#d6b656;fillColor=#fff2cc;align=center;verticalAlign=middle;whiteSpace=wrap;rounded=0;shadow=0;sketch=0;" parent="1" vertex="1">
          <mxGeometry x="29" y="337" width="90" height="35" as="geometry" />
        </mxCell>
        <mxCell id="qNSTUSo1iGKztb03Qh-T-12" value="" style="endArrow=none;html=1;rounded=0;exitX=1;exitY=0.5;exitDx=0;exitDy=0;entryX=0;entryY=0.5;entryDx=0;entryDy=0;" parent="1" source="qNSTUSo1iGKztb03Qh-T-11" target="qNSTUSo1iGKztb03Qh-T-10" edge="1">
          <mxGeometry width="50" height="50" relative="1" as="geometry">
            <mxPoint x="129" y="217" as="sourcePoint" />
            <mxPoint x="169" y="217" as="targetPoint" />
          </mxGeometry>
        </mxCell>
        <mxCell id="XZbEDzGJukOWLIuaBgb2-1" value="" style="endArrow=classic;html=1;rounded=0;edgeStyle=orthogonalEdgeStyle;" parent="1" source="fpnA1gOJu9WvSEtu6Hov-3" target="qNSTUSo1iGKztb03Qh-T-1" edge="1">
          <mxGeometry width="50" height="50" relative="1" as="geometry">
            <mxPoint x="489" y="419" as="sourcePoint" />
            <mxPoint x="539" y="369" as="targetPoint" />
            <Array as="points">
              <mxPoint x="60" y="414" />
              <mxPoint x="60" y="693" />
            </Array>
          </mxGeometry>
        </mxCell>
      </root>
    </mxGraphModel>
  </diagram>
</mxfile>
